<svg xmlns="http://www.w3.org/2000/svg" xmlns:xlink="http://www.w3.org/1999/xlink" width="594.497" height="689" viewBox="0 0 594.497 689"><defs><linearGradient id="a" x1="0.5" x2="0.5" y2="1" gradientUnits="objectBoundingBox"><stop offset="0" stop-color="#f2f0c9"/><stop offset="1" stop-color="#f2f0c9" stop-opacity="0.31"/></linearGradient></defs><g transform="translate(-1192 -190)"><text transform="translate(1223 213)" fill="#f2f0c9" font-size="24" font-family="CenturyGothic, Century Gothic" letter-spacing="0.1em"><tspan x="0" y="0">Today</tspan></text><text transform="translate(1202 809)" fill="#f2f0c9" font-size="16" font-family="CenturyGothic, Century Gothic" letter-spacing="0.1em"><tspan x="0" y="0">2</tspan></text><text transform="translate(1656.728 875)" fill="#f2f0c9" font-size="16" font-family="CenturyGothic, Century Gothic" letter-spacing="0.1em"><tspan x="0" y="0">7/14</tspan></text><text transform="translate(1747.497 875)" fill="#f2f0c9" font-size="16" font-family="CenturyGothic, Century Gothic" letter-spacing="0.1em"><tspan x="0" y="0">7/15</tspan></text><text transform="translate(1684 443)" fill="#f2f0c9" font-size="16" font-family="CenturyGothic, Century Gothic" letter-spacing="0.1em"><tspan x="0" y="0">7/15</tspan></text><text transform="translate(1605 443)" fill="#f2f0c9" font-size="16" font-family="CenturyGothic, Century Gothic" letter-spacing="0.1em"><tspan x="0" y="0">7/09</tspan></text><text transform="translate(1661 443)" fill="#f2f0c9" font-size="16" font-family="CenturyGothic, Century Gothic" letter-spacing="0.1em"><tspan x="0" y="0">-</tspan></text><text transform="translate(1566.553 875)" fill="#f2f0c9" font-size="16" font-family="CenturyGothic, Century Gothic" letter-spacing="0.1em"><tspan x="0" y="0">7/13</tspan></text><text transform="translate(1475.954 875)" fill="#f2f0c9" font-size="16" font-family="CenturyGothic, Century Gothic" letter-spacing="0.1em"><tspan x="0" y="0">7/12</tspan></text><text transform="translate(1385.355 875)" fill="#f2f0c9" font-size="16" font-family="CenturyGothic, Century Gothic" letter-spacing="0.1em"><tspan x="0" y="0">7/11</tspan></text><text transform="translate(1294.677 875)" fill="#f2f0c9" font-size="16" font-family="CenturyGothic, Century Gothic" letter-spacing="0.1em"><tspan x="0" y="0">7/10</tspan></text><text transform="translate(1204 875)" fill="#f2f0c9" font-size="16" font-family="CenturyGothic, Century Gothic" letter-spacing="0.1em"><tspan x="0" y="0">7/09</tspan></text><text transform="translate(1202 756)" fill="#f2f0c9" font-size="16" font-family="CenturyGothic, Century Gothic" letter-spacing="0.1em"><tspan x="0" y="0">4</tspan></text><text transform="translate(1202 708)" fill="#f2f0c9" font-size="16" font-family="CenturyGothic, Century Gothic" letter-spacing="0.1em"><tspan x="0" y="0">6</tspan></text><text transform="translate(1202 666)" fill="#f2f0c9" font-size="16" font-family="CenturyGothic, Century Gothic" letter-spacing="0.1em"><tspan x="0" y="0">8</tspan></text><text transform="translate(1192 613)" fill="#f2f0c9" font-size="16" font-family="CenturyGothic, Century Gothic" letter-spacing="0.1em"><tspan x="0" y="0">10</tspan></text><text transform="translate(1192 565)" fill="#f2f0c9" font-size="16" font-family="CenturyGothic, Century Gothic" letter-spacing="0.1em"><tspan x="0" y="0">12</tspan></text><text transform="translate(1192 523)" fill="#f2f0c9" font-size="16" font-family="CenturyGothic, Century Gothic" letter-spacing="0.1em"><tspan x="0" y="0">14</tspan></text><text transform="translate(1192 475)" fill="#f2f0c9" font-size="16" font-family="CenturyGothic, Century Gothic" letter-spacing="0.1em"><tspan x="0" y="0">16</tspan></text><text transform="translate(1247 291)" fill="#f2f0c9" font-size="60" font-family="CenturyGothic, Century Gothic" letter-spacing="0.1em"><tspan x="0" y="0">7</tspan></text><text transform="translate(1436 291)" fill="#f2f0c9" font-size="60" font-family="CenturyGothic, Century Gothic" letter-spacing="0.1em"><tspan x="0" y="0">60</tspan></text><text transform="translate(1653 291)" fill="#f2f0c9" font-size="60" font-family="CenturyGothic, Century Gothic" letter-spacing="0.1em"><tspan x="0" y="0">102</tspan></text><text transform="translate(1424 213)" fill="#f2f0c9" font-size="24" font-family="CenturyGothic, Century Gothic" letter-spacing="0.1em"><tspan x="0" y="0">Weekly</tspan></text><text transform="translate(1656 213)" fill="#f2f0c9" font-size="24" font-family="CenturyGothic, Century Gothic" letter-spacing="0.1em"><tspan x="0" y="0">Totoally</tspan></text><rect width="538" height="388" transform="translate(1223 465)" fill="#bc2b35"/><path d="M1223,3244.1v387.446h538.12" transform="translate(0 -2779)" fill="none" stroke="#f2f0c9" stroke-width="1"/><line x2="538" transform="translate(1223.5 799.5)" fill="none" stroke="#f2f0c9" stroke-width="1" opacity="0.3"/><line x2="538" transform="translate(1223.5 751.5)" fill="none" stroke="#f2f0c9" stroke-width="1" opacity="0.3"/><line x2="538" transform="translate(1223.5 703.5)" fill="none" stroke="#f2f0c9" stroke-width="1" opacity="0.3"/><line x2="538" transform="translate(1223.5 655.5)" fill="none" stroke="#f2f0c9" stroke-width="1" opacity="0.3"/><line x2="538" transform="translate(1223.5 607.5)" fill="none" stroke="#f2f0c9" stroke-width="1" opacity="0.3"/><line x2="538" transform="translate(1223.5 559.5)" fill="none" stroke="#f2f0c9" stroke-width="1" opacity="0.3"/><line x2="538" transform="translate(1223.5 511.5)" fill="none" stroke="#f2f0c9" stroke-width="1" opacity="0.3"/><line x2="538" transform="translate(1223.5 463.5)" fill="none" stroke="#f2f0c9" stroke-width="1" opacity="0.3"/><path d="M1223,3407l101.314,48.436L1410.5,3407l87.952-21.927,96.745,97.3,89.976-26.934v175.543H1146.3v-294Z" transform="translate(76 -2778)" opacity="0.15" fill="url(#a)"/><circle cx="7" cy="7" r="7" transform="translate(1754 672)" fill="#f2f0c9"/><path d="M1685.176,3455.436l-88.318,27.934-96.877-96.658L1411.24,3410.1l-86.926,45.335L1223,3407l-77.8-69.023" transform="translate(76 -2779)" fill="none" stroke="#f2f0c9" stroke-width="1"/><circle cx="4" cy="4" r="4" transform="translate(1569 604)" fill="#f2f0c9"/><circle cx="4" cy="4" r="4" transform="translate(1484 626)" fill="#f2f0c9"/><circle cx="4" cy="4" r="4" transform="translate(1396 672)" fill="#f2f0c9"/><circle cx="4" cy="4" r="4" transform="translate(1295 626)" fill="#f2f0c9"/><circle cx="4" cy="4" r="4" transform="translate(1219 555)" fill="#f2f0c9"/><circle cx="4" cy="4" r="4" transform="translate(1668 699)" fill="#f2f0c9"/><path d="M6.5,0,13,11H0Z" transform="translate(1761 432) rotate(90)" fill="#f2f0c9"/><path d="M6.5,0,13,11H0Z" transform="translate(1566 445) rotate(-90)" fill="#f2f0c9"/></g></svg>